<?xml version="1.0" encoding="UTF-8" standalone="no"?>
<!-- Created with Inkscape (http://www.inkscape.org/) -->

<svg
   version="1.1"
   id="svg2"
   xml:space="preserve"
   width="680.3147"
   height="680.3147"
   viewBox="0 0 680.3147 680.3147"
   sodipodi:docname="logo.ai"
   xmlns:inkscape="http://www.inkscape.org/namespaces/inkscape"
   xmlns:sodipodi="http://sodipodi.sourceforge.net/DTD/sodipodi-0.dtd"
   xmlns="http://www.w3.org/2000/svg"
   xmlns:svg="http://www.w3.org/2000/svg"><defs
     id="defs6"><clipPath
       clipPathUnits="userSpaceOnUse"
       id="clipPath18"><path
         d="M 0,510.236 H 510.236 V 0 H 0 Z"
         id="path16" /></clipPath></defs><sodipodi:namedview
     id="namedview4"
     pagecolor="#ffffff"
     bordercolor="#666666"
     borderopacity="1.0"
     inkscape:pageshadow="2"
     inkscape:pageopacity="0.0"
     inkscape:pagecheckerboard="0" /><g
     id="g8"
     inkscape:groupmode="layer"
     inkscape:label="logo"
     transform="matrix(1.3333333,0,0,-1.3333333,0,680.31467)"><path
       d="M 0,0 H 510.236 V 510.236 H 0 Z"
       style="fill:#1d1d1b;fill-opacity:1;fill-rule:nonzero;stroke:none"
       id="path10" /><g
       id="g12"><g
         id="g14"
         clip-path="url(#clipPath18)"><g
           id="g20"
           transform="translate(122.8036,166.0135)"><path
             d="m 0,0 108.742,223.501 c 8.57,17.613 33.616,17.754 42.383,0.239 L 262.382,1.474 c 7.841,-15.664 -3.485,-34.117 -21.002,-34.215 L 21.391,-33.981 C 3.871,-34.08 -7.665,-15.754 0,0"
             style="fill:#ffed00;fill-opacity:1;fill-rule:nonzero;stroke:none"
             id="path22" /></g><g
           id="g24"
           transform="translate(218.2396,325.8856)"><path
             d="m 0,0 v -17.605 c 0,-0.787 -0.115,-1.362 -0.345,-1.726 h 5.753 c 2.57,0 4.296,1.342 5.178,4.027 0.076,0.652 0.115,1.189 0.115,1.611 v 7.94 c 0,2.78 -1.035,4.583 -3.106,5.408 C 6.922,-0.115 6.156,0 5.293,0 Z M -9.206,9.436 H 4.143 c 4.908,0 8.552,-1.151 10.931,-3.453 2.991,-2.818 4.487,-6.348 4.487,-10.586 v -9.895 c 0,-3.279 -0.92,-5.351 -2.761,-6.213 -0.691,-0.403 -1.842,-0.941 -3.452,-1.612 0,-0.172 -0.04,-0.326 -0.115,-0.46 0.613,-0.844 0.92,-1.458 0.92,-1.841 0,-1.093 -1.765,-2.244 -5.293,-3.452 -1.285,-0.307 -3.049,-0.46 -5.293,-0.46 H 0 v -22.783 h -9.206 v 24.739 c 0,1.246 -0.843,2.282 -2.531,3.107 -0.614,0.364 -0.92,0.709 -0.92,1.036 2.224,1.553 3.337,2.78 3.337,3.682 0.076,0.402 0.114,0.785 0.114,1.15 z"
             style="fill:#1d1d1b;fill-opacity:1;fill-rule:nonzero;stroke:none"
             id="path26" /></g><g
           id="g28"
           transform="translate(249.8827,325.8856)"><path
             d="m 0,0 v -17.95 c 0,-0.384 -0.077,-0.844 -0.23,-1.381 h 5.868 c 2.302,0 3.95,1.266 4.948,3.797 0.077,0.422 0.115,0.767 0.115,1.036 v 9.78 c 0,2.34 -1.075,3.835 -3.222,4.488 C 6.865,-0.077 6.213,0 5.523,0 Z M -8.975,9.436 H 4.257 c 5.274,0 9.033,-1.075 11.277,-3.223 2.761,-2.569 4.142,-6.136 4.142,-10.7 v -10.011 c 0,-3.261 -0.921,-5.332 -2.761,-6.213 l -3.453,-1.612 v -0.344 c 0,-0.058 0.231,-0.634 0.691,-1.727 0,-0.25 0.267,-0.748 0.806,-1.496 0.23,-0.268 1.956,-6.903 5.177,-19.906 l 1.496,-5.523 H 11.622 L 6.099,-28.536 H 0 v -22.783 h -9.205 v 24.509 c 0,1.515 -0.997,2.704 -2.992,3.567 l -0.345,0.345 v 0.345 l 2.417,2.072 c 0.613,0.67 0.92,1.476 0.92,2.416 v 27.27 c 0.018,0.153 0.095,0.231 0.23,0.231"
             style="fill:#1d1d1b;fill-opacity:1;fill-rule:nonzero;stroke:none"
             id="path30" /></g><g
           id="g32"
           transform="translate(281.9281,321.6859)"><path
             d="m 0,0 v -13.578 c 0,-1.63 -1.035,-2.896 -3.106,-3.797 l -0.346,-0.46 v -0.23 c 0.077,-0.193 0.882,-0.768 2.417,-1.726 0.69,-0.69 1.035,-1.535 1.035,-2.532 v -10.816 c 0,-2.455 1.304,-4.142 3.912,-5.063 0.307,-0.077 0.613,-0.115 0.921,-0.115 h 1.15 c 0.979,0 2.014,0.537 3.107,1.611 0.921,1.016 1.381,2.206 1.381,3.567 v 10.471 c 0,1.841 -0.997,3.183 -2.992,4.027 -0.039,0.153 -0.23,0.307 -0.575,0.461 0,0.46 0.652,0.996 1.956,1.611 1.074,0.748 1.611,1.821 1.611,3.221 V 0 c 0,2.626 -1.381,4.353 -4.142,5.178 L 5.178,5.293 C 2.685,5.293 0.997,3.912 0.115,1.15 0.038,0.748 0,0.364 0,0 m 4.833,14.383 h 1.381 c 5.139,0 9.32,-2.761 12.542,-8.285 0.843,-2.014 1.265,-3.893 1.265,-5.638 v -14.498 c 0,-1.553 -1.113,-2.858 -3.336,-3.912 l -0.116,-0.23 v -0.231 c 0.019,-0.114 0.864,-0.729 2.532,-1.84 0.613,-0.672 0.92,-1.439 0.92,-2.302 v -11.046 c 0,-5.6 -2.838,-9.934 -8.514,-13.003 -2.053,-0.842 -4.085,-1.265 -6.099,-1.265 -5.716,0 -10.126,2.877 -13.232,8.63 -0.768,1.879 -1.151,3.758 -1.151,5.638 v 10.931 c 0,1.649 -0.997,2.877 -2.992,3.682 -0.306,0.364 -0.46,0.633 -0.46,0.806 2.225,1.553 3.337,2.78 3.337,3.682 0.077,0.402 0.115,0.786 0.115,1.15 V 0.46 c 0,5.063 2.608,9.206 7.825,12.427 2.129,0.997 4.122,1.496 5.983,1.496"
             style="fill:#1d1d1b;fill-opacity:1;fill-rule:nonzero;stroke:none"
             id="path34" /></g><g
           id="g36"
           transform="translate(195.3993,257.9843)"><path
             d="m 0,0 v -17.604 c 0,-1.823 -1.036,-3.165 -3.106,-4.028 l -0.346,-0.46 v -0.461 C -1.15,-23.53 0,-24.95 0,-26.81 v -15.419 h 5.523 c 2.339,0 3.989,1.304 4.948,3.913 0.076,0.306 0.115,0.613 0.115,0.92 v 10.816 c 0,1.572 -1.15,2.915 -3.452,4.027 v 0.461 l 2.762,2.071 c 0.46,0.613 0.69,1.303 0.69,2.071 v 13.118 c 0,2.262 -1.38,3.873 -4.142,4.832 z M -9.205,9.436 H 5.293 c 5.581,0 9.876,-2.724 12.887,-8.17 0.921,-1.899 1.381,-3.817 1.381,-5.753 v -13.808 c 0,-1.535 -1.113,-2.839 -3.337,-3.912 0,-0.154 -0.077,-0.23 -0.23,-0.23 0.019,-0.327 0.71,-0.864 2.071,-1.612 0.997,-0.786 1.496,-1.63 1.496,-2.531 v -10.816 c 0,-5.255 -2.8,-9.512 -8.399,-12.772 -2.053,-0.768 -3.855,-1.15 -5.409,-1.15 H -9.205 v 24.738 c 0,1.246 -0.843,2.282 -2.531,3.107 -0.614,0.364 -0.921,0.709 -0.921,1.036 2.225,1.553 3.337,2.78 3.337,3.682 0.077,0.402 0.115,0.785 0.115,1.151 z"
             style="fill:#1d1d1b;fill-opacity:1;fill-rule:nonzero;stroke:none"
             id="path38" /></g><g
           id="g40"
           transform="translate(217.8373,267.4198)"><path
             d="m 0,0 h 9.205 v -27.615 c 0,-1.344 -1.074,-2.532 -3.222,-3.568 l -0.23,-0.344 v -0.461 c 2.301,-1.075 3.452,-2.416 3.452,-4.028 V -60.754 H 0 v 24.623 c 0,1.707 -1.151,3.088 -3.452,4.143 v 0.69 C -1.151,-30.243 0,-28.862 0,-27.155 Z"
             style="fill:#1d1d1b;fill-opacity:1;fill-rule:nonzero;stroke:none"
             id="path42" /></g><g
           id="g44"
           transform="translate(244.4169,268.1678)"><path
             d="m 0,0 c 5.83,0 10.279,-2.877 13.348,-8.63 0.767,-1.88 1.151,-3.76 1.151,-5.639 v -7.249 H 4.948 v 7.48 c 0,2.244 -1.419,3.854 -4.258,4.833 h -1.38 c -1.956,0 -3.452,-1.151 -4.488,-3.452 -0.23,-0.538 -0.345,-1.573 -0.345,-3.107 v -12.657 c 0,-1.208 -1.113,-2.397 -3.337,-3.567 l -0.115,-0.231 v -0.229 c 0,-0.097 0.806,-0.672 2.416,-1.727 0.691,-0.728 1.036,-1.419 1.036,-2.07 v -10.241 c 0,-3.146 1.073,-5.141 3.222,-5.984 0.498,-0.23 1.112,-0.344 1.841,-0.344 h 0.575 c 2.148,0 3.72,1.265 4.718,3.796 0.076,0.422 0.115,0.767 0.115,1.036 v 11.622 l -0.115,0.575 h -4.948 c -0.057,0 -0.326,0.46 -0.805,1.381 -1.765,1.226 -2.647,1.879 -2.647,1.956 v 0.229 l 2.762,2.072 c 0.46,0.824 0.69,1.591 0.69,2.301 v 1.381 h 14.614 v -1.956 c 0,-1.554 -1.114,-2.858 -3.337,-3.912 l -0.116,-0.23 v -0.231 c 0.019,-0.115 0.864,-0.728 2.532,-1.841 0.613,-0.672 0.921,-1.438 0.921,-2.301 v -11.391 c 0,-5.314 -2.839,-9.57 -8.516,-12.773 -2.052,-0.766 -4.008,-1.15 -5.868,-1.15 h -0.23 c -5.6,0 -9.934,2.723 -13.002,8.169 -0.921,1.918 -1.381,3.835 -1.381,5.754 v 11.276 c 0,1.649 -0.997,2.876 -2.992,3.682 -0.306,0.364 -0.46,0.633 -0.46,0.806 2.225,1.553 3.337,2.78 3.337,3.681 0.077,0.403 0.115,0.786 0.115,1.152 v 13.461 c 0,5.504 2.762,9.8 8.285,12.888 C -4.104,-0.46 -2.033,0 0,0"
             style="fill:#1d1d1b;fill-opacity:1;fill-rule:nonzero;stroke:none"
             id="path46" /></g><g
           id="g48"
           transform="translate(276.2904,268.1678)"><path
             d="m 0,0 c 5.829,0 10.278,-2.877 13.348,-8.63 0.766,-1.88 1.15,-3.76 1.15,-5.639 v -7.249 H 4.947 v 7.48 c 0,2.244 -1.419,3.854 -4.257,4.833 h -1.38 c -1.956,0 -3.453,-1.151 -4.489,-3.452 -0.229,-0.538 -0.344,-1.573 -0.344,-3.107 v -12.657 c 0,-1.208 -1.114,-2.397 -3.337,-3.567 l -0.116,-0.231 v -0.229 c 0,-0.097 0.806,-0.672 2.417,-1.727 0.69,-0.728 1.036,-1.419 1.036,-2.07 v -10.241 c 0,-3.146 1.073,-5.141 3.221,-5.984 0.498,-0.23 1.113,-0.344 1.841,-0.344 h 0.575 c 2.149,0 3.721,1.265 4.718,3.796 0.077,0.422 0.115,0.767 0.115,1.036 v 11.622 l -0.115,0.575 h -4.947 c -0.058,0 -0.326,0.46 -0.806,1.381 -1.765,1.226 -2.646,1.879 -2.646,1.956 v 0.229 l 2.761,2.072 c 0.46,0.824 0.691,1.591 0.691,2.301 v 1.381 h 14.613 v -1.956 c 0,-1.554 -1.113,-2.858 -3.337,-3.912 l -0.115,-0.23 v -0.231 c 0.018,-0.115 0.863,-0.728 2.531,-1.841 0.613,-0.672 0.921,-1.438 0.921,-2.301 v -11.391 c 0,-5.314 -2.839,-9.57 -8.515,-12.773 -2.052,-0.766 -4.008,-1.15 -5.869,-1.15 h -0.229 c -5.601,0 -9.935,2.723 -13.003,8.169 -0.92,1.918 -1.38,3.835 -1.38,5.754 v 11.276 c 0,1.649 -0.997,2.876 -2.992,3.682 -0.307,0.364 -0.46,0.633 -0.46,0.806 2.224,1.553 3.337,2.78 3.337,3.681 0.077,0.403 0.115,0.786 0.115,1.152 v 13.461 c 0,5.504 2.761,9.8 8.284,12.888 C -4.104,-0.46 -2.034,0 0,0"
             style="fill:#1d1d1b;fill-opacity:1;fill-rule:nonzero;stroke:none"
             id="path50" /></g><g
           id="g52"
           transform="translate(293.6644,267.4198)"><path
             d="m 0,0 h 10.011 c 0.153,-0.058 1.036,-2.704 2.646,-7.939 L 16.8,-21.518 h 0.23 L 23.589,0 h 10.24 c -6.137,-17.644 -9.513,-27.194 -10.125,-28.651 -0.557,-0.768 -1.937,-1.65 -4.142,-2.647 -0.231,-0.192 -0.346,-0.422 -0.346,-0.69 1.534,-1.075 2.302,-1.994 2.302,-2.762 h -0.116 l 0.116,-0.229 c 0,-0.078 -0.039,-0.116 -0.116,-0.116 l 0.116,-0.805 v -24.854 h -9.205 v 24.738 c 0,1.304 -1.459,2.609 -4.374,3.912 -0.306,0.269 -0.46,0.461 -0.46,0.577 0,0.152 0.614,0.727 1.841,1.725 0.231,0.556 0.346,0.901 0.346,1.035 v 0.346 c 0,0.613 -1.189,4.257 -3.567,10.931 z"
             style="fill:#1d1d1b;fill-opacity:1;fill-rule:nonzero;stroke:none"
             id="path54" /></g><g
           id="g56"
           transform="translate(162.6346,201.7177)"><path
             d="m 0,0 h 9.666 c 2.761,-17.202 4.218,-26.561 4.372,-28.076 v -0.345 c 0,-0.729 -0.92,-1.725 -2.762,-2.992 v -0.345 c 0.019,-0.077 1.016,-0.729 2.992,-1.956 0.671,-0.614 1.131,-1.725 1.381,-3.337 l 1.496,-10.011 h 0.115 l 1.841,11.623 c 0,1.265 -0.883,2.376 -2.646,3.336 0,0.153 -0.078,0.23 -0.231,0.23 0,0.383 0.959,1.112 2.877,2.186 0.997,0.92 1.496,2.109 1.496,3.567 0.153,0.479 1.572,9.185 4.257,26.12 h 9.666 c -3.222,-18.027 -4.987,-27.615 -5.293,-28.767 -0.978,-1.246 -2.168,-2.128 -3.567,-2.646 0,-0.114 -0.154,-0.269 -0.461,-0.46 0,-0.153 0.806,-0.92 2.417,-2.301 l 0.46,-1.496 -4.603,-25.084 H 10.816 c -2.838,16.262 -4.411,24.854 -4.717,25.775 -0.633,1.092 -1.746,1.936 -3.337,2.531 0,0.038 -0.193,0.23 -0.575,0.575 0,0.249 0.69,0.901 2.07,1.956 0.461,0.882 0.691,1.457 0.691,1.727 l -0.115,0.229 c 0,0.077 0.038,0.115 0.115,0.115 z"
             style="fill:#1d1d1b;fill-opacity:1;fill-rule:nonzero;stroke:none"
             id="path58" /></g><g
           id="g60"
           transform="translate(198.5926,201.7177)"><path
             d="m 0,0 h 9.205 v -27.615 c 0,-1.344 -1.074,-2.531 -3.222,-3.568 l -0.23,-0.344 v -0.461 c 2.301,-1.075 3.452,-2.416 3.452,-4.028 V -60.754 H 0 v 24.624 c 0,1.706 -1.151,3.087 -3.452,4.142 v 0.69 C -1.151,-30.243 0,-28.862 0,-27.155 Z"
             style="fill:#1d1d1b;fill-opacity:1;fill-rule:nonzero;stroke:none"
             id="path62" /></g><g
           id="g64"
           transform="translate(210.6742,201.7177)"><path
             d="m 0,0 h 10.241 c 0.287,-0.345 0.824,-2.033 1.611,-5.062 4.525,-14.921 6.789,-22.553 6.789,-22.899 v -0.575 c 0,-0.863 -0.729,-1.746 -2.186,-2.647 l -0.116,-0.23 v -0.345 l 3.337,-2.071 c 0.901,-0.633 1.784,-2.742 2.647,-6.328 v -0.115 h 0.115 v 4.142 c 0,1.61 -1.036,2.914 -3.107,3.912 l -0.345,0.46 v 0.231 c 1.648,1.053 2.646,1.821 2.992,2.3 0.306,0.518 0.46,0.979 0.46,1.381 V 0 h 9.32 v -26.695 c 0,-2.206 -0.69,-3.587 -2.071,-4.142 l -1.496,-1.036 c 0.21,-0.46 1.016,-1.112 2.416,-1.956 0.767,-0.941 1.151,-1.668 1.151,-2.187 v -24.738 h -10.01 c -0.384,1.439 -3.146,9.99 -8.285,25.659 -1.017,1.266 -2.513,2.339 -4.488,3.222 l -0.115,0.575 c 1.534,0.997 2.302,1.956 2.302,2.877 0,0.364 -0.576,2.397 -1.726,6.099 H 9.32 v -4.603 c 0,-1.861 -1.035,-3.242 -3.106,-4.142 l -0.345,-0.46 v -0.231 c 0.152,-0.268 0.996,-0.883 2.531,-1.841 0.613,-0.787 0.92,-1.707 0.92,-2.761 V -60.754 H 0 V -35.9 c 0,1.227 -0.958,2.262 -2.876,3.107 l -0.461,0.46 c 0,0.422 0.653,1.035 1.956,1.841 0.921,0.9 1.381,1.745 1.381,2.531 z"
             style="fill:#1d1d1b;fill-opacity:1;fill-rule:nonzero;stroke:none"
             id="path66" /></g><g
           id="g68"
           transform="translate(245.3089,201.7177)"><path
             d="m 0,0 h 9.205 v -27.615 c 0,-1.344 -1.074,-2.531 -3.222,-3.568 l -0.23,-0.344 v -0.461 c 2.301,-1.075 3.452,-2.416 3.452,-4.028 V -60.754 H 0 v 24.624 c 0,1.706 -1.151,3.087 -3.452,4.142 v 0.69 C -1.151,-30.243 0,-28.862 0,-27.155 Z"
             style="fill:#1d1d1b;fill-opacity:1;fill-rule:nonzero;stroke:none"
             id="path70" /></g><g
           id="g72"
           transform="translate(257.6205,201.7177)"><path
             d="m 0,0 h 8.976 v -27.73 c 0,-1.208 -1.114,-2.398 -3.337,-3.568 l -0.116,-0.229 v -0.231 c 0,-0.096 0.806,-0.672 2.416,-1.725 0.691,-0.73 1.037,-1.42 1.037,-2.072 v -16.109 h 15.878 v -9.09 H -0.229 v 24.969 c 0,1.284 -1.037,2.435 -3.107,3.452 -0.153,0.191 -0.231,0.345 -0.231,0.46 0,0.191 0.806,0.882 2.417,2.071 0.614,0.767 0.921,1.573 0.921,2.416 V -0.23 C -0.211,-0.077 -0.135,0 0,0"
             style="fill:#1d1d1b;fill-opacity:1;fill-rule:nonzero;stroke:none"
             id="path74" /></g><g
           id="g76"
           transform="translate(294.3265,188.0829)"><path
             d="m 0,0 v -13.578 c 0,-1.631 -1.036,-2.897 -3.106,-3.797 l -0.346,-0.46 v -0.23 c 0.076,-0.193 0.882,-0.768 2.416,-1.726 0.69,-0.69 1.036,-1.535 1.036,-2.532 v -10.816 c 0,-2.455 1.304,-4.142 3.912,-5.063 0.307,-0.077 0.613,-0.115 0.921,-0.115 h 1.15 c 0.978,0 2.014,0.537 3.107,1.611 0.921,1.016 1.381,2.205 1.381,3.567 v 10.471 c 0,1.841 -0.998,3.183 -2.992,4.027 -0.039,0.153 -0.23,0.307 -0.575,0.46 0,0.46 0.652,0.997 1.956,1.612 1.074,0.748 1.611,1.821 1.611,3.221 V 0 c 0,2.626 -1.381,4.353 -4.143,5.178 L 5.178,5.293 C 2.685,5.293 0.997,3.912 0.115,1.15 0.038,0.748 0,0.363 0,0 m 4.833,14.383 h 1.381 c 5.139,0 9.319,-2.762 12.542,-8.285 0.843,-2.013 1.265,-3.893 1.265,-5.638 v -14.498 c 0,-1.554 -1.113,-2.858 -3.336,-3.912 l -0.116,-0.231 v -0.23 c 0.019,-0.114 0.864,-0.729 2.532,-1.841 0.613,-0.671 0.92,-1.438 0.92,-2.301 V -33.6 c 0,-5.599 -2.838,-9.933 -8.514,-13.002 -2.053,-0.842 -4.085,-1.265 -6.099,-1.265 -5.716,0 -10.126,2.877 -13.232,8.63 -0.768,1.879 -1.152,3.758 -1.152,5.637 v 10.932 c 0,1.648 -0.996,2.877 -2.991,3.682 -0.306,0.364 -0.46,0.632 -0.46,0.805 2.225,1.554 3.337,2.781 3.337,3.683 0.077,0.402 0.114,0.785 0.114,1.15 V 0.46 c 0,5.062 2.609,9.205 7.826,12.427 2.128,0.997 4.122,1.496 5.983,1.496"
             style="fill:#1d1d1b;fill-opacity:1;fill-rule:nonzero;stroke:none"
             id="path78" /></g><g
           id="g80"
           transform="translate(331.4926,202.4657)"><path
             d="m 0,0 h 1.841 c 4.487,0 8.131,-1.841 10.931,-5.523 1.324,-1.496 2.282,-4.181 2.876,-8.055 v -1.956 H 6.789 c -0.614,4.833 -2.34,7.249 -5.179,7.249 H 0.806 c -2.571,0 -4.105,-1.994 -4.603,-5.984 v -0.689 c 0,-4.335 3.068,-8.86 9.205,-13.578 0.843,-0.863 1.266,-1.516 1.266,-1.956 v -0.231 c -0.308,-0.843 -0.461,-1.303 -0.461,-1.381 v -0.114 c 0.058,-0.307 1.4,-1.074 4.027,-2.302 1.976,-1.055 3.51,-3.203 4.603,-6.443 0.844,-1.898 1.266,-3.854 1.266,-5.868 0,-5.39 -1.956,-9.686 -5.869,-12.888 -2.435,-1.688 -5.388,-2.531 -8.859,-2.531 -6.885,0 -11.642,3.413 -14.269,10.24 -0.862,2.8 -1.323,5.37 -1.381,7.71 h 8.746 c 0.555,-3.721 1.361,-6.098 2.417,-7.134 1.053,-1.535 2.396,-2.301 4.026,-2.301 2.532,0 4.373,1.419 5.523,4.257 0.231,0.805 0.346,1.726 0.346,2.761 0,3.778 -2.801,7.691 -8.4,11.738 -0.902,0.517 -2.819,1.36 -5.753,2.531 0,0.115 -0.115,0.23 -0.346,0.344 0.461,0.902 0.69,1.439 0.69,1.612 v 0.46 c -0.077,0.633 -1.227,2.282 -3.451,4.948 -1.842,3.164 -2.761,6.271 -2.761,9.32 v 1.495 c 0,5.946 2.607,10.318 7.824,13.119 C -3.472,-0.384 -1.669,0 0,0"
             style="fill:#1d1d1b;fill-opacity:1;fill-rule:nonzero;stroke:none"
             id="path82" /></g><g
           id="g84"
           transform="translate(128.4413,110.3212)"><path
             d="m 0,0 c 0.708,0.461 1.062,1.187 1.062,2.176 0,1.928 -1.409,2.892 -4.227,2.892 h -5.686 v -5.76 h 5.686 c 1.401,0 2.456,0.23 3.165,0.692 M -8.851,12.608 V 7.07 h 5.068 c 1.269,0 2.245,0.236 2.929,0.705 0.684,0.47 1.027,1.159 1.027,2.065 0,0.906 -0.343,1.595 -1.027,2.064 -0.684,0.47 -1.66,0.704 -2.929,0.704 z M 2.694,4.76 C 3.271,4.025 3.56,3.099 3.56,1.978 3.56,0.478 2.995,-0.676 1.866,-1.483 0.737,-2.291 -0.907,-2.694 -3.066,-2.694 h -8.257 v 17.305 h 7.762 c 1.978,0 3.507,-0.395 4.586,-1.187 1.08,-0.79 1.62,-1.887 1.62,-3.287 0,-0.908 -0.21,-1.69 -0.631,-2.349 C 1.594,7.128 1.029,6.626 0.321,6.28 1.326,5.999 2.117,5.492 2.694,4.76"
             style="fill:#ffde00;fill-opacity:1;fill-rule:nonzero;stroke:none"
             id="path86" /></g><g
           id="g88"
           transform="translate(142.4584,113.6093)"><path
             d="M 0,0 V -5.982 H -2.447 V 0.05 L -9.32,11.323 h 2.645 L -1.137,2.2 4.425,11.323 h 2.448 z"
             style="fill:#ffde00;fill-opacity:1;fill-rule:nonzero;stroke:none"
             id="path90" /></g><g
           id="g92"
           transform="translate(171.2103,116.3788)"><path
             d="M 0,0 H 2.373 V -6.75 C 1.516,-7.459 0.519,-8.002 -0.618,-8.382 -1.755,-8.761 -2.942,-8.95 -4.178,-8.95 c -1.747,0 -3.322,0.384 -4.722,1.149 -1.402,0.767 -2.501,1.822 -3.301,3.165 -0.799,1.343 -1.198,2.856 -1.198,4.536 0,1.682 0.399,3.198 1.198,4.549 0.8,1.352 1.904,2.406 3.313,3.165 1.409,0.758 2.995,1.138 4.76,1.138 1.384,0 2.64,-0.228 3.77,-0.681 C 0.77,7.618 1.73,6.955 2.521,6.081 L 0.989,4.549 c -1.385,1.334 -3.058,2.002 -5.019,2.002 -1.319,0 -2.501,-0.284 -3.548,-0.853 -1.047,-0.568 -1.866,-1.36 -2.46,-2.374 -0.593,-1.012 -0.889,-2.154 -0.889,-3.424 0,-1.252 0.296,-2.385 0.889,-3.399 0.594,-1.014 1.413,-1.809 2.46,-2.386 1.047,-0.577 2.221,-0.865 3.523,-0.865 1.549,0 2.901,0.371 4.055,1.112 z"
             style="fill:#ffde00;fill-opacity:1;fill-rule:nonzero;stroke:none"
             id="path94" /></g><g
           id="g96"
           transform="translate(191.2357,109.7772)"><path
             d="m 0,0 v -2.15 h -12.56 v 17.305 h 12.214 v -2.15 h -9.741 V 7.689 H -1.41 V 5.588 h -8.677 V 0 Z"
             style="fill:#ffde00;fill-opacity:1;fill-rule:nonzero;stroke:none"
             id="path98" /></g><g
           id="g100"
           transform="translate(205.871,116.0077)"><path
             d="M 0,0 C 0.824,0.676 1.236,1.64 1.236,2.893 1.236,4.145 0.824,5.105 0,5.772 -0.824,6.439 -2.019,6.774 -3.584,6.774 h -4.204 v -7.788 h 4.204 c 1.565,0 2.76,0.338 3.584,1.014 m 1.311,-8.381 -3.734,5.316 C -2.884,-3.1 -3.247,-3.115 -3.51,-3.115 H -7.788 V -8.381 H -10.26 V 8.925 h 6.75 c 2.24,0 4.005,-0.536 5.29,-1.608 C 3.066,6.246 3.708,4.771 3.708,2.893 3.708,1.557 3.379,0.42 2.72,-0.52 2.06,-1.459 1.121,-2.144 -0.099,-2.571 l 4.104,-5.81 z"
             style="fill:#ffde00;fill-opacity:1;fill-rule:nonzero;stroke:none"
             id="path102" /></g><g
           id="g104"
           transform="translate(215.2284,108.0341)"><path
             d="M 0,0 C -1.211,0.404 -2.163,0.928 -2.855,1.57 L -1.94,3.499 C -1.282,2.905 -0.437,2.423 0.594,2.052 1.623,1.682 2.683,1.496 3.771,1.496 c 1.433,0 2.504,0.243 3.213,0.73 0.708,0.485 1.063,1.132 1.063,1.94 0,0.594 -0.193,1.075 -0.581,1.446 C 7.079,5.983 6.601,6.268 6.033,6.466 5.464,6.663 4.66,6.886 3.622,7.133 2.32,7.445 1.269,7.759 0.47,8.072 c -0.8,0.314 -1.483,0.795 -2.052,1.447 -0.569,0.651 -0.853,1.528 -0.853,2.632 0,0.923 0.243,1.756 0.729,2.497 0.486,0.743 1.224,1.335 2.213,1.781 0.989,0.445 2.217,0.668 3.683,0.668 1.022,0 2.028,-0.133 3.017,-0.397 0.989,-0.263 1.837,-0.642 2.546,-1.137 L 8.938,13.585 c -0.726,0.462 -1.501,0.812 -2.325,1.051 -0.824,0.239 -1.631,0.359 -2.423,0.359 -1.4,0 -2.451,-0.256 -3.152,-0.767 -0.7,-0.511 -1.05,-1.17 -1.05,-1.978 0,-0.593 0.198,-1.075 0.593,-1.446 C 0.977,10.434 1.467,10.145 2.052,9.938 2.637,9.732 3.432,9.515 4.437,9.283 5.739,8.971 6.786,8.657 7.578,8.345 8.369,8.031 9.048,7.553 9.617,6.91 10.186,6.268 10.47,5.402 10.47,4.314 10.47,3.408 10.223,2.579 9.729,1.83 9.234,1.08 8.483,0.486 7.479,0.05 6.473,-0.388 5.237,-0.605 3.771,-0.605 2.468,-0.605 1.211,-0.403 0,0"
             style="fill:#ffde00;fill-opacity:1;fill-rule:nonzero;stroke:none"
             id="path106" /></g><g
           id="g108"
           transform="translate(232.868,122.7821)"><path
             d="M 0,0 H -5.934 V 2.15 H 8.381 V 0 H 2.448 V -15.155 H 0 Z"
             style="fill:#ffde00;fill-opacity:1;fill-rule:nonzero;stroke:none"
             id="path110" /></g><g
           id="g112"
           transform="translate(256.8734,109.7772)"><path
             d="m 0,0 v -2.15 h -12.559 v 17.305 h 12.213 v -2.15 h -9.741 V 7.689 h 8.678 V 5.588 h -8.678 V 0 Z"
             style="fill:#ffde00;fill-opacity:1;fill-rule:nonzero;stroke:none"
             id="path114" /></g><g
           id="g116"
           transform="translate(271.5092,116.0077)"><path
             d="M 0,0 C 0.823,0.676 1.235,1.64 1.235,2.893 1.235,4.145 0.823,5.105 0,5.772 -0.825,6.439 -2.02,6.774 -3.585,6.774 h -4.203 v -7.788 h 4.203 c 1.565,0 2.76,0.338 3.585,1.014 m 1.31,-8.381 -3.734,5.316 c -0.461,-0.035 -0.824,-0.05 -1.087,-0.05 h -4.277 v -5.266 h -2.473 V 8.925 h 6.75 c 2.241,0 4.005,-0.536 5.29,-1.608 C 3.065,6.246 3.708,4.771 3.708,2.893 3.708,1.557 3.378,0.42 2.719,-0.52 2.06,-1.459 1.12,-2.144 -0.1,-2.571 l 4.105,-5.81 z"
             style="fill:#ffde00;fill-opacity:1;fill-rule:nonzero;stroke:none"
             id="path118" /></g><g
           id="g120"
           transform="translate(298.6049,116.3788)"><path
             d="M 0,0 H 2.373 V -6.75 C 1.516,-7.459 0.519,-8.002 -0.618,-8.382 -1.756,-8.761 -2.942,-8.95 -4.179,-8.95 c -1.747,0 -3.321,0.384 -4.721,1.149 -1.402,0.767 -2.501,1.822 -3.301,3.165 -0.799,1.343 -1.198,2.856 -1.198,4.536 0,1.682 0.399,3.198 1.198,4.549 0.8,1.352 1.904,2.406 3.313,3.165 1.409,0.758 2.995,1.138 4.759,1.138 1.385,0 2.641,-0.228 3.771,-0.681 C 0.77,7.618 1.73,6.955 2.521,6.081 L 0.988,4.549 C -0.396,5.883 -2.069,6.551 -4.03,6.551 -5.349,6.551 -6.531,6.267 -7.578,5.698 -8.625,5.13 -9.444,4.338 -10.037,3.324 -10.631,2.312 -10.928,1.17 -10.928,-0.1 c 0,-1.252 0.297,-2.385 0.891,-3.399 0.593,-1.014 1.412,-1.809 2.459,-2.386 1.047,-0.577 2.221,-0.865 3.523,-0.865 1.549,0 2.901,0.371 4.055,1.112 z"
             style="fill:#ffde00;fill-opacity:1;fill-rule:nonzero;stroke:none"
             id="path122" /></g><g
           id="g124"
           transform="translate(316.2318,113.9306)"><path
             d="M 0,0 -3.733,8.48 -7.467,0 Z m 0.865,-1.978 h -9.197 l -1.903,-4.326 h -2.546 l 7.836,17.306 h 2.448 L 5.365,-6.304 H 2.769 Z"
             style="fill:#ffde00;fill-opacity:1;fill-rule:nonzero;stroke:none"
             id="path126" /></g><g
           id="g128"
           transform="translate(334.7982,116.0077)"><path
             d="M 0,0 C 0.823,0.676 1.236,1.64 1.236,2.893 1.236,4.145 0.823,5.105 0,5.772 -0.824,6.439 -2.02,6.774 -3.585,6.774 h -4.203 v -7.788 h 4.203 C -2.02,-1.014 -0.824,-0.676 0,0 m 1.311,-8.381 -3.734,5.316 C -2.885,-3.1 -3.247,-3.115 -3.511,-3.115 H -7.788 V -8.381 H -10.26 V 8.925 h 6.749 c 2.241,0 4.005,-0.536 5.29,-1.608 C 3.065,6.246 3.708,4.771 3.708,2.893 3.708,1.557 3.379,0.42 2.72,-0.52 2.06,-1.459 1.12,-2.144 -0.099,-2.571 l 4.104,-5.81 z"
             style="fill:#ffde00;fill-opacity:1;fill-rule:nonzero;stroke:none"
             id="path130" /></g><g
           id="g132"
           transform="translate(353.0433,113.9306)"><path
             d="M 0,0 -3.733,8.48 -7.466,0 Z m 0.865,-1.978 h -9.197 l -1.903,-4.326 h -2.546 l 7.837,17.306 h 2.447 L 5.365,-6.304 H 2.769 Z"
             style="fill:#ffde00;fill-opacity:1;fill-rule:nonzero;stroke:none"
             id="path134" /></g><g
           id="g136"
           transform="translate(373.0931,116.3788)"><path
             d="M 0,0 H 2.373 V -6.75 C 1.516,-7.459 0.519,-8.002 -0.618,-8.382 -1.755,-8.761 -2.942,-8.95 -4.179,-8.95 c -1.747,0 -3.32,0.384 -4.721,1.149 -1.402,0.767 -2.501,1.822 -3.3,3.165 -0.8,1.343 -1.199,2.856 -1.199,4.536 0,1.682 0.399,3.198 1.199,4.549 0.799,1.352 1.903,2.406 3.312,3.165 1.409,0.758 2.995,1.138 4.759,1.138 1.385,0 2.641,-0.228 3.771,-0.681 C 0.771,7.618 1.73,6.955 2.521,6.081 L 0.989,4.549 C -0.396,5.883 -2.068,6.551 -4.03,6.551 -5.349,6.551 -6.531,6.267 -7.578,5.698 -8.625,5.13 -9.444,4.338 -10.037,3.324 -10.631,2.312 -10.928,1.17 -10.928,-0.1 c 0,-1.252 0.297,-2.385 0.891,-3.399 0.593,-1.014 1.412,-1.809 2.459,-2.386 1.047,-0.577 2.221,-0.865 3.523,-0.865 1.549,0 2.901,0.371 4.055,1.112 z"
             style="fill:#ffde00;fill-opacity:1;fill-rule:nonzero;stroke:none"
             id="path138" /></g><g
           id="g140"
           transform="translate(393.1185,109.7772)"><path
             d="m 0,0 v -2.15 h -12.56 v 17.305 h 12.213 v -2.15 h -9.74 V 7.689 h 8.678 V 5.588 h -8.678 V 0 Z"
             style="fill:#ffde00;fill-opacity:1;fill-rule:nonzero;stroke:none"
             id="path142" /></g></g></g></g></svg>
